<?xml version="1.0" encoding="UTF-8"?>
<svg xmlns="http://www.w3.org/2000/svg" xmlns:xlink="http://www.w3.org/1999/xlink" width="14pt" height="17pt" viewBox="0 0 14 17" version="1.1">
<g id="surface1">
<path style=" stroke:none;fill-rule:nonzero;fill:rgb(0%,0%,0%);fill-opacity:1;" d="M 12.5625 5.039062 C 12.570312 5.1875 12.570312 5.339844 12.570312 5.492188 C 12.570312 10.097656 9.683594 15.402344 4.40625 15.402344 C 2.78125 15.402344 1.269531 14.832031 0 13.839844 C 0.230469 13.871094 0.453125 13.882812 0.691406 13.882812 C 2.035156 13.882812 3.269531 13.332031 4.253906 12.394531 C 2.992188 12.363281 1.9375 11.359375 1.574219 9.976562 C 1.75 10.011719 1.925781 10.03125 2.113281 10.03125 C 2.371094 10.03125 2.628906 9.988281 2.871094 9.914062 C 1.554688 9.589844 0.570312 8.1875 0.570312 6.492188 L 0.570312 6.449219 C 0.949219 6.710938 1.394531 6.871094 1.867188 6.894531 C 1.09375 6.265625 0.585938 5.199219 0.585938 3.992188 C 0.585938 3.34375 0.726562 2.75 0.976562 2.234375 C 2.390625 4.347656 4.511719 5.726562 6.894531 5.878906 C 6.847656 5.621094 6.824219 5.351562 6.824219 5.082031 C 6.824219 3.160156 8.101562 1.597656 9.691406 1.597656 C 10.519531 1.597656 11.265625 2.015625 11.789062 2.695312 C 12.4375 2.546875 13.058594 2.253906 13.609375 1.855469 C 13.394531 2.664062 12.941406 3.34375 12.347656 3.777344 C 12.925781 3.699219 13.484375 3.503906 14 3.234375 C 13.609375 3.925781 13.121094 4.542969 12.5625 5.039062 Z M 12.5625 5.039062 "/>
</g>
</svg>
